# xmcd CD Database Entry
#
# Track frame offsets:
# 150
# 19526
# 37679
# 53354
# 68991
# 97107
# 120783
# 140913
# 164693
# 184172
# 214313
#
# Disc length: 3136 seconds
#
# Revision: 2
# Processed by: cddbd v1.4b41PL1 Copyright (c) Steve Scherf et al.
# Submitted via: tcd 2.0b
#
DISCID=940c3e0b
DTITLE=KJ Soundtrack 1
DYEAR=1900
DGENRE=
TTITLE0=Heart of Glass
TTITLE1=You Gotta Be
TTITLE2=Sleep Walker
TTITLE3=Selling the Drama
TTITLE4=Cherish
TTITLE5=Again
TTITLE6=Dreams
TTITLE7=I Don't Wanna Wait
TTITLE8=American Woman
TTITLE9=Stan
TTITLE10=Cantaloop
EXTD=
EXTT0=
EXTT1=
EXTT2=
EXTT3=
EXTT4=
EXTT5=
EXTT6=
EXTT7=
EXTT8=
EXTT9=
EXTT10=
PLAYORDER=
